{
  "accessors": [
    {
      "bufferView": 2,
      "componentType": 5126,
      "count": 11290,
      "max": [
        1.168720006942749,
        1.168720006942749,
        0.5887200236320496
      ],
      "min": [
        -1.168720006942749,
        -1.168720006942749,
        0.01128000020980835
      ],
      "type": "VEC3"
    },
    {
      "bufferView": 2,
      "byteOffset": 135480,
      "componentType": 5126,
      "count": 11290,
      "max": [
        1.0,
        1.0,
        0.9999430775642395
      ],
      "min": [
        -1.0,
        -1.0,
        -0.99994295835495
      ],
      "type": "VEC3"
    },
    {
      "bufferView": 1,
      "componentType": 5126,
      "count": 11290,
      "max": [
        1.0448100566864014,
        0.9875199794769287
      ],
      "min": [
        -0.04481000080704689,
        0.0
      ],
      "type": "VEC2"
    },
    {
      "bufferView": 0,
      "componentType": 5125,
      "count": 61440,
      "type": "SCALAR"
    }
  ],
  "asset": {
    "extras": {
      "author": "JayDesigns3D (https://sketchfab.com/JayDesigns)",
      "license": "CC-BY-4.0 (http://creativecommons.org/licenses/by/4.0/)",
      "source": "https://sketchfab.com/3d-models/one-ring-2151e868e7be41f2a5bede5fee5e4dee",
      "title": "One Ring"
    },
    "generator": "Sketchfab-12.64.0",
    "version": "2.0"
  },
  "bufferViews": [
    {
      "buffer": 0,
      "byteLength": 245760,
      "name": "floatBufferViews",
      "target": 34963
    },
    {
      "buffer": 0,
      "byteLength": 90320,
      "byteOffset": 245760,
      "byteStride": 8,
      "name": "floatBufferViews",
      "target": 34962
    },
    {
      "buffer": 0,
      "byteLength": 270960,
      "byteOffset": 336080,
      "byteStride": 12,
      "name": "floatBufferViews",
      "target": 34962
    }
  ],
  "buffers": [
    {
      "byteLength": 607040,
      "uri": "scene.bin"
    }
  ],
  "materials": [
    {
      "doubleSided": true,
      "name": "Material.002",
      "pbrMetallicRoughness": {
        "baseColorFactor": [
          0.40982512913917085,
          0.26331604685232884,
          0.07819836447927712,
          1.0
        ],
        "metallicFactor": 0.98,
        "roughnessFactor": 0.03532496038472877
      }
    }
  ],
  "meshes": [
    {
      "name": "Circle_0",
      "primitives": [
        {
          "attributes": {
            "NORMAL": 1,
            "POSITION": 0,
            "TEXCOORD_0": 2
          },
          "indices": 3,
          "material": 0,
          "mode": 4
        }
      ]
    }
  ],
  "nodes": [
    {
      "children": [
        1
      ],
      "matrix": [
        1.0,
        0.0,
        0.0,
        0.0,
        0.0,
        2.220446049250313e-16,
        -1.0,
        0.0,
        0.0,
        1.0,
        2.220446049250313e-16,
        0.0,
        0.0,
        0.0,
        0.0,
        1.0
      ],
      "name": "Sketchfab_model"
    },
    {
      "children": [
        2,
        4
      ],
      "name": "Root"
    },
    {
      "children": [
        3
      ],
      "matrix": [
        1.0,
        0.0,
        0.0,
        0.0,
        0.0,
        1.0,
        0.0,
        0.0,
        0.0,
        0.0,
        0.8866400000000002,
        0.0,
        0.0,
        0.0,
        0.5978100000000001,
        1.0
      ],
      "name": "Circle"
    },
    {
      "mesh": 0,
      "name": "Circle_0"
    },
    {
      "children": [
        5
      ],
      "matrix": [
        -0.47633000000000003,
        -0.53113,
        0.7007200000000001,
        0.0,
        0.7444700000000001,
        -0.6676600000000001,
        0.0,
        0.0,
        0.46784000000000003,
        0.52166,
        0.7134400000000001,
        0.0,
        3.67325,
        4.0958499999999995,
        5.60161,
        1.0
      ],
      "name": "Lamp"
    },
    {
      "name": "Lamp"
    }
  ],
  "scene": 0,
  "scenes": [
    {
      "name": "Sketchfab_Scene",
      "nodes": [
        0
      ]
    }
  ]
}
